<?xml version="1.0" encoding="utf-8" ?>
<svg baseProfile="full" height="300mm" version="1.1" viewBox="0,0,200,300" width="200mm" xmlns="http://www.w3.org/2000/svg" xmlns:ev="http://www.w3.org/2001/xml-events" xmlns:xlink="http://www.w3.org/1999/xlink"><defs /><rect fill="#222222" height="300" width="200" x="0" y="0" /><text fill="#FFFFFF" style="font-size:12px; font-family:Arial; font-weight:bold;" x="10" y="20">Over 5km Workouts</text><text fill="#FFFFFF" style="font-size:4px; font-family:Arial" x="10" y="280">ATHLETE</text><text fill="#FFFFFF" style="font-size:9px; font-family:Arial" x="10" y="290">liuyining</text><text fill="#FFFFFF" style="font-size:4px; font-family:Arial" x="120" y="280">STATISTICS</text><text fill="#FFFFFF" style="font-size:3px; font-family:Arial" x="120" y="285">Number: 18</text><text fill="#FFFFFF" style="font-size:3px; font-family:Arial" x="120" y="290">Weekly: 2.6</text><text fill="#FFFFFF" style="font-size:3px; font-family:Arial" x="141" y="285">Total: 194.7 km</text><text fill="#FFFFFF" style="font-size:3px; font-family:Arial" x="141" y="290">Avg: 10.8 km</text><text fill="#FFFFFF" style="font-size:3px; font-family:Arial" x="167" y="285">Min: 7.0 km</text><text fill="#FFFFFF" style="font-size:3px; font-family:Arial" x="167" y="290">Max: 21.1 km</text><polyline fill="none" points="20.206698220572434,72.75 19.29055098380195,71.17130122899835 18.902184220438357,71.29805887621478 18.653231166943442,71.17130122899835 17.976078861567657,69.69629273351165 17.438340266118757,69.35058484159526 17.398507777543273,68.35954970923194 21.78008151834365,65.98563962862681 25.45462858735118,61.60645176873368 28.78064138145419,58.333474582235795 34.70572405360872,51.26859248478286 35.75132687808946,50.23129702339065 38.848302863072604,45.90913039261068 39.47566455777269,45.54029787226318 40.04327751963865,44.80262922969996 40.312146817333996,43.799853217147756 44.49455811531516,37.114452973997686 46.416475687990896,34.463236732175574 47.60149222245673,32.25 46.47622442082502,34.30185634873487 44.33522816118784,37.28735622581007 43.697908344329335,38.53225184856274 40.62084860360483,43.28117248676426 40.27231432881672,43.880536672899325 40.25239808455808,44.36463620088034 39.55532953486545,45.49419372279226 38.85826098517282,45.92065638954227 35.66170377883827,50.35807808912796 34.78538903070148,51.199439749427256 28.661143915785942,58.46024658475653 25.41479609871749,61.61797616932017 21.889620861853473,66.02021149133361 19.668959625065327,67.2532677010895 19.84820582350949,68.56697638399055 21.50125409848988,71.13673093699617 20.714562449604273,71.94336833772832" stroke="#4dd2ff" stroke-linecap="round" stroke-linejoin="round" stroke-width="0.5"><title>2022-11-23 10.1km</title></polyline><polyline fill="none" points="97.75,46.40760292271443 96.06096171372337,43.16072864979651 95.51640838652384,42.82962728149869 95.13798997265985,42.86166939499526 92.88593892432982,44.41035989923694 88.59412032819819,46.67461114576872 86.6189608022105,47.892160043389595 86.22208295349265,47.81739867541182 85.26219234272139,48.40480799102079 84.72686873289058,47.83875907170295 84.32999088423094,47.860119463613955 83.38855970825534,48.308686691314506 82.6963309024577,48.94949369555252 81.08113035548013,49.90001688943448 77.39847310847836,51.57676156714297 76.30013673653593,52.33502585475799 73.85426162258955,54.87677328630525 70.85460346401669,56.852458879599 68.51025524153374,58.15532311656716 66.61816317227203,59.789220199061674 57.25,63.36661861351604 66.6089334548451,59.789220199061674 68.54717411118327,58.123285665074945 70.89152233360801,56.80974174596486 73.900410209666,54.83405534987833 76.19860984501429,52.39910427630821 77.27848678216105,51.65152026110445 79.890496809443,50.36993529303436 80.88730628992198,50.028176662402984 83.85004557884531,48.0950834883115 84.58842297171941,47.83875907170295 85.26219234272139,48.40480799102079 85.8528942570556,48.127123996462615 86.43436645396287,47.44359103791794 86.40667730174027,46.984339834605635 89.76629443932325,45.296841434028465 91.27996809483739,44.78417832571722 92.00911577028455,43.99381780051772 93.5873974475544,42.872350097335584 96.18094804004068,41.63338138648396 96.41169097542297,41.676104688660416 96.55936645396287,41.96448652398249 96.41169097542297,42.17810218805971 95.81175934360363,42.45580190217879 95.61793527804548,42.82962728149869 96.14402917044936,43.182089992580586 97.28851412941003,45.43568726214289" stroke="#4dd2ff" stroke-linecap="round" stroke-linejoin="round" stroke-width="0.5"><title>2022-11-21 10.4km</title></polyline><polyline fill="none" points="108.27095830446342,72.75 107.96385668509174,72.17464066205139 108.0516000049538,71.80234826629749 109.45549312187359,71.12545086888713 110.77164291893132,69.85626083186071 109.86496194760548,67.94399624077778 108.57805992377689,66.48862971019116 108.168591098045,64.01786205043027 111.38584615767468,62.291687545133755 116.72356477938592,55.911455854191445 121.69568623509258,50.98649440184818 124.12325141648762,48.05852728964237 124.66433522198349,47.753880354284775 125.04455627448624,46.92456087206665 128.30568299407605,43.201034717814764 129.41709837823873,41.542346247355454 131.91778299276484,38.86809941098909 136.0855906836805,33.06246627452492 137.03614331490826,32.25 136.2610773233464,32.774718255968764 131.69842469325522,39.138911172762164 130.14829271001508,40.67914468687377 121.47632793558296,50.969569884458906 116.66506923281122,55.759139642323134 111.21035951806698,62.27476417705475 108.168591098045,64.05170843047381 108.4025732841692,65.94709473047988 110.85938623879338,69.80549302918371 110.65465182589833,70.22855757873913 108.72429879009724,71.63312417497218" stroke="#4dd2ff" stroke-linecap="round" stroke-linejoin="round" stroke-width="0.5"><title>2022-11-16 7.0km</title></polyline><polyline fill="none" points="154.78003969421843,72.75 153.5680009017815,70.49697741788987 154.99923819914693,69.19886261492502 153.82588149583898,68.40805141917372 153.47774269379443,67.64707813347923 153.50353075319435,67.33373504577321 153.95482179295504,66.9010220632772 154.89608596154721,66.78165274018829 154.65109939716058,65.08062933952897 157.50067996233702,63.57356582407374 159.04796352714766,61.90234858605254 162.33594110247213,57.66453386240755 166.56518284627236,53.456441832415294 174.49501111602876,43.95048484376457 175.53942752227886,42.95060742199712 179.51078867196338,37.38400109614304 180.5165229891427,36.68256386835128 181.26437671220629,35.47369609499583 181.30305880127707,34.80209858348826 182.94060057401657,32.25 181.43199909833493,34.56330761623394 181.27727074181894,35.428923023166135 180.41337075148476,36.86165454321599 179.5494707611506,37.38400109614304 175.487851403479,42.99537819850957 172.19987382821273,46.60684251161001 166.48781866807258,53.486286881539854 162.2327888648142,57.69437805582129 157.4362098138081,63.439272284755134 154.6768874565023,65.05078664780012 154.90897999127628,66.30417447724903 153.06513374316273,67.19944494630909 152.09808151511243,67.27405057231954 152.05939942598343,67.7067624553165 152.75567703024717,68.57218239502981 154.43190089211566,72.00396986123815" stroke="#4dd2ff" stroke-linecap="round" stroke-linejoin="round" stroke-width="0.5"><title>2022-11-09 8.0km</title></polyline><polyline fill="none" points="52.75,94.63131694571348 51.075084745767526,91.34804413504753 50.507627118669916,90.99852835664933 50.02254237286979,91.12562513897865 48.06389830505941,92.51308826320746 41.66627118643373,96.02932429158682 41.26355932204751,95.97636980957759 41.05305084749125,96.230551077766 40.35745762713486,96.53768594971916 39.844915254216176,95.99755160560744 39.46050847455626,95.99755160560744 38.371355932205915,96.53768594971916 37.82220338983461,97.07781749457354 36.22966101689963,98.0521653590331 32.48627118644072,99.74666168944532 31.442881355935242,100.4879951716066 29.154745762702078,102.88140728138387 26.143559321993962,104.87234539663041 23.644915254204534,106.30198494970682 21.91508474573493,107.80573280480894 12.25,111.50147164335795 21.90593220340088,107.80573280480894 23.59915254235966,106.3337544948372 26.061186440638267,104.93588534863375 29.08152542373864,102.93435825537745 31.250677966105286,100.60448995371553 32.5503389830119,99.72548065534647 36.339491525432095,97.96743981938198 37.94118644064292,97.00368195804185 38.50864406774053,96.47414087803918 39.41474576271139,96.00814250199619 39.85406779660843,96.02932429158682 40.37576271186117,96.53768594971916 40.95237288135104,96.294096297941 41.09881355933612,96.13523317484214 40.97983050852781,95.35150489011721 43.19474576268112,94.23944788520748 44.21067796612624,93.86875957992743 44.485254237253685,94.1123549004842 44.485254237253685,94.44067812734284 44.65915254241554,94.48304233936506 48.594745762704406,92.39658443652297 49.93101694912184,91.3586355039879 50.745593220344745,91.13621653051814 51.23983050842071,91.5492799605272 52.53949152538553,94.19708357418858" stroke="#4dd2ff" stroke-linecap="round" stroke-linejoin="round" stroke-width="0.5"><title>2022-11-08 10.3km</title></polyline><polyline fill="none" points="67.31840844530961,117.9058113937499 65.75716406738502,117.87502533736551 63.55936082298285,117.2131221869713 60.1152423240419,116.90525834354776 60.001331790030235,116.82059557368484 59.96782869179151,116.4049770073907 60.952819780039135,116.32801036327874 61.22754518556758,116.67435966387711 60.79200490846415,120.15316070715926 60.89921482282807,120.722684158638 61.66308546270011,120.67650673633034 63.11711992623168,120.2455161438047 63.78718189097708,120.20703472514288 65.42883370467462,120.55336680991604 68.61162803735351,121.5 69.77753585603205,121.28450727505697 70.98364739259705,120.83043137114146 72.41757999724359,119.283474985059 74.19994482351467,117.80575666603545 75.633877428103,116.8513820460721 76.57866479846416,115.70457774805982 77.02090569518623,114.8117519946536 77.48994907052838,113.65722078696126 77.85178253150661,111.840723767702 77.77807571538142,110.47062600122445 77.58375774559681,109.53155633042479 77.28893048109603,108.71563415974379 76.14982514097937,106.92211486164888 75.60037432989338,105.7058851777474 75.31224768504035,104.44344949704828 75.37255326187005,102.79609415917366 74.93701298473752,100.85617316390562 75.0978278562834,99.80151332547393 76.73947967001004,98.39271187207487 75.92870469263289,97.38420995337947 75.90860283366055,96.92229632214003 76.46475426442339,96.10624221913167 77.79817757432465,94.92063896351465 78.94398353408906,93.6811253727501 81.85875308082905,91.1019500742259 82.68962991714943,90.22424110839347 83.84213649653248,89.46201214622852 86.08684407852706,88.41489758031821 86.74350480403518,88.44569526832493 87.50737544381991,87.9529307996927 89.85259232050157,87.88363554643001 90.47574994777096,88.05302383452363 92.03699432569556,88.76137086893141 92.84106868339586,88.51499002189666 94.16779137364938,87.71424689020932 94.95846449205419,87.46786273307225 95.03217130817939,87.2445764179356 94.35540872378624,82.94811515056062 92.70705629047006,82.98661495920533 92.58644513681065,83.17911371713126 92.49263646171312,84.24939813939272 92.40552840629243,84.37259540287778 91.1659137714887,84.47269303605572 89.08202106104,85.10407514368853 87.38006367051275,85.0578766263352 86.32136576619814,84.7421860247996 85.88582548906561,84.54199132219219 85.68480689966236,84.2801974735412 86.57598931278335,82.13961477492558 86.3749707233801,81.60060986408644 85.90592734803795,81.0 84.82042696513236,81.89321299259609 85.04154741347884,82.29361549321766 85.0214455545647,82.50921598750574 85.27606910114991,82.61701601094683 85.59769884424168,83.1329140585949 84.12356252176687,86.15893383817456 83.19887701034895,86.91349553177861 82.8035404511611,86.9750920821898 82.67622867785394,87.35236989131954 80.38461675829603,89.0000515717984 79.72125541319838,89.97786488537531 77.62396146348328,92.39539790542767 75.55346999235917,94.17385363209905 75.23854086891515,94.62808473750192 73.77110516608809,96.0831462240094 73.59018843556987,96.07544755745766 72.87322213329026,96.75292730506044 72.69230540277204,97.36881287640426 72.51808929195977,100.40197833986167 71.33878023392754,100.70220911315118 72.00884219870204,100.50205539273884 72.51138867228292,100.56364120759827 72.52478991157841,104.4588451772288 72.64540106526692,105.22862531053397 73.02733638518839,106.12925842205732 73.73760206782026,107.21462296928075 75.07102537772153,108.77721348922933 75.41945759940427,109.41609616429196 75.68078176563722,110.68614859302761 75.56017061197781,112.117819267085 74.72259315603878,114.22679165118461 73.81130888394546,115.56603649043245 71.04395296942675,118.21367128974816 69.79093709532754,118.47535124640854 68.16938714057324,117.93659743801254 67.22459977027029,117.87502533736551" stroke="#ff0100" stroke-linecap="round" stroke-linejoin="round" stroke-width="0.5"><title>2022-11-06 21.1km</title></polyline><polyline fill="none" points="139.71304818621138,94.1332641193585 138.80305901466636,92.43318112923589 138.18909041688312,92.05256236227433 137.86017866811017,92.07793698285968 137.23524634545902,92.34437018744211 135.1521386031527,93.87952185946779 127.49945858150022,98.04082979371742 127.08283703302732,97.93933612851833 126.74296155927004,98.31993694750417 126.01935571193462,98.68784996955219 125.18611261504702,97.95202284117113 124.0458852192969,98.40874363829789 123.0920411478146,99.1953144278159 120.8335138061666,100.5527717151781 119.71521386032691,100.92067815749033 116.3274228478549,102.60795933350164 114.43069842987461,104.10492655137205 112.50108283705777,106.31228614644351 108.97076340008061,108.60840615843335 106.24079588521272,110.13067239536758 103.89455874386476,112.10959076244762 102.25,112.69311198678042 103.90552246884909,112.09690548817889 106.46007038437529,109.97844660668488 108.89401732542319,108.63377741444128 112.31469951273175,106.38840129856544 114.40877097996417,104.19372912751714 116.54669734707568,102.55721436753811 119.56172171089565,101.04754219655297 120.99796968058217,100.56545816226571 123.11396859772503,99.27143391865684 123.69504602055531,98.68784996955219 125.08743909042096,97.97739626264956 125.37249593937304,98.01545638512471 125.92068218730856,98.61173012288054 126.22766648622928,98.56098353269044 126.85259880888043,98.18038344857632 126.64428803464398,97.34305917930033 126.81970763404388,97.08932344348432 131.63278289121808,94.72955639994325 133.0799945857725,94.28550922776049 134.08865728206,93.29591270436504 135.8538170005777,92.07793698285968 140.57918245799374,89.80688801322685 140.87520303193014,90.9995110597738 141.3904981050291,92.05256236227433 142.75,93.94295747281285 142.5087980508688,94.50118948009185 141.2698971304344,95.38928071065311" stroke="#4dd2ff" stroke-linecap="round" stroke-linejoin="round" stroke-width="0.5"><title>2022-11-04 8.7km</title></polyline><polyline fill="none" points="153.74722570372978,121.5 153.509468395554,121.01852829082054 155.53040551528102,119.19580155215226 154.69825493654935,118.26723509778094 154.38619846955407,117.08072610106319 153.16769226494944,115.98018857865827 152.84077596623683,113.3147946017416 156.19909794459818,111.4575920389907 161.65265620138962,104.73366037316737 166.70499900070718,99.74642844135815 175.72491688054288,88.9975837347738 176.86912392626982,87.96565870079212 181.5351110997144,81.44718670898874 182.15922403382137,81.0 181.23791446449468,81.7395773792814 176.92856325337198,87.82806822042039 175.85865536646452,88.79119923173857 166.31864337489242,100.12477532876073 161.54863737907726,104.80244875104108 156.02077996346634,111.42319920666341 152.8704956297879,113.24600968515733 153.16769226494944,114.67329097255424 152.95965462038293,114.98282026525703 155.6047046740423,118.98945389161236 155.53040551528102,119.35056213240023 153.6729265449685,120.8465737769584 153.16769226494944,120.76059645449277" stroke="#4dd2ff" stroke-linecap="round" stroke-linejoin="round" stroke-width="0.5"><title>2022-11-03 7.0km</title></polyline><polyline fill="none" points="22.5367500113789,167.00146764173405 24.628482053172775,165.63196813374816 25.027562508475967,165.09053479415888 24.325731362914667,164.21468278364046 24.243162992876023,163.22735282879148 23.22481976193376,162.43111446227704 22.770693726604804,161.34822379006073 22.57803419639822,159.58054793575138 25.66058667906327,157.76507629813568 30.394506563141476,152.0955732914881 35.11466505221324,147.39737459972093 43.1650811341824,137.7934994934185 44.72011877055047,136.24854253862577 49.12376517429948,130.13227467378601 49.74302794988034,129.75 48.86229866906069,130.49862036039121 44.91277830069885,136.07334027219622 43.22012671420816,137.7616448647459 35.11466505221324,147.41330093503348 30.57340469828341,151.9203887508047 25.536734124005307,157.9402543030301 20.348688204481732,160.75900072130025 16.15146272588754,162.66998639714438 15.256972050119657,163.30697644289467 18.559706852945965,161.55524758547836 19.48172031872673,161.69857159128878 19.674379848875105,162.01706891256617 19.52300450374605,162.51073848105443 20.21107425435912,162.89293320773868 21.256940275314264,164.78796828951454 20.169790069339797,165.74343947142188 21.394554225436877,165.2338555661263 24.05050346266944,170.25" stroke="#4dd2ff" stroke-linecap="round" stroke-linejoin="round" stroke-width="0.5"><title>2022-10-31 8.1km</title></polyline><polyline fill="none" points="97.75,137.0516100109562 96.75580704765161,135.1279811779823 96.41371915006312,134.9176772327337 96.24267520126887,134.9362334924299 94.97588095552055,135.7960006540634 90.55546390393283,138.20204707587982 88.6846707140212,139.0926930958194 88.3425828164327,139.080323101447 88.20360960802645,138.94425299750947 85.92124191633775,140.00188079918007 85.01791606176994,140.68221645632002 83.89009502445697,141.89443205617863 82.21172627690248,143.0014854188812 80.76854295897647,143.81166255296557 79.61399630460073,144.7702551610273 74.07110333905439,146.8914741866538 72.16823940875474,147.1017367700806 70.08364128286485,147.2006836169494 69.0841032070748,147.46660247124237 67.5179820509511,147.70778368366882 65.79150719282916,148.39421729081369 61.814735383406514,149.60627936124365 60.462419163261075,150.3359785663888 58.55955523296143,151.90047366604267 57.66157450180617,153.2794221920376 57.266035370208556,156.59371787129203 57.25,159.28954182187226 57.49053055298282,162.94973571933224 58.00900752277812,164.92194500092228 58.506103998981416,165.79983581477063 58.01435264619067,164.92812737480926 57.501220799807925,163.02392656551456 57.25,159.2091634752178 57.27138049362111,156.55661854445134 57.70433548899018,153.1124659598281 58.474033258564305,151.97467796894125 59.339943249331554,151.1955282794006 60.47310941005708,150.323610856085 61.62231094102026,149.6619346933585 65.69529497163603,148.41895349256447 67.44315032334998,147.71396780477517 69.0841032070748,147.4604183250376 70.10502177645685,147.18213109541466 71.20611719679437,147.1635785682265 73.94282037747325,146.91002679672965 79.6727926620224,144.7331486311923 80.8968259205576,143.70652567103025 82.24379701729049,142.95819320750888 83.90078527122387,141.86350848888833 84.79876600237912,140.89868529813975 85.85710043553263,140.06991470705907 87.21476177909062,139.37720227240789 88.06463639964932,139.080323101447 88.82898904581089,138.610261452759 89.34212089219363,138.12164089102953 89.89266860237694,137.8494960926182 90.14923452556832,137.81857047035737 90.49132242312771,138.12782598596095 90.82806519730366,137.98556864393686 90.90289692493388,137.89897705557814 90.84944569092477,137.42890628342866 93.11043288902147,136.32793684462013 93.85875016497448,136.09908114643986 94.39860762836179,135.55477224466085 95.10950904051424,135.03520011524597 96.84132902207784,134.20016418522937" stroke="#ff0000" stroke-linecap="round" stroke-linejoin="round" stroke-width="0.5"><title>2022-10-30 21.1km</title></polyline><polyline fill="none" points="142.75,145.16180273070495 141.78391019639093,143.55067718289501 140.55261927034007,140.96405793662416 140.2590037417831,140.5146813183237 139.813844714663,140.28451208132174 139.813844714663,139.65976453301118 139.55811506079044,139.46247508153465 139.16978484560968,139.56111985240568 137.37967726844363,140.383156100208 136.15785781102022,141.2928689099499 135.35278297477635,142.12585222208145 133.80893358279718,142.7067446712681 129.83091674459865,144.66860358855774 129.9351028999081,145.4906009058177 129.79303086997243,145.66595952269563 129.13949953229167,145.95091666701046 128.51438260055147,145.34812181966845 127.62406454631127,145.66595952269563 127.19784845644608,145.87419750992558 126.65797474270221,146.42219029198895 124.73526660422795,147.57296607171156 121.07927970064338,149.20595062876964 119.28917212347733,150.59780385592603 117.54642188956495,152.52664163073496 111.92036950419424,155.92394247858465 110.05449017777573,157.53488322946941 102.25,160.53752491846535 110.11131898971507,157.6115940938107 111.88248362956801,156.0444898980204 114.45872310566483,154.56503497790982 117.59377923287684,152.47184557901346 119.03344246954657,150.8389104639864 120.99403648270527,149.2717078783753 123.71234798879595,147.91271657335892 124.9909962581587,147.44144946114102 126.67691768007353,146.41123046361463 127.1504911131924,145.88515739285504 128.23023854068015,145.37004169135616 128.62804022448836,145.37004169135616 129.1773854069179,145.907077155367 129.83091674459865,145.6330798037452 130.3802619270282,144.9754833198749 130.2666043030913,144.58092350493098 130.36131898971507,144.46036327359616 134.11202057998162,142.5423414653851 135.37172591203125,142.12585222208145 136.37570159026654,141.1284635485863 138.65832553786458,139.75840912335116 139.1413704396109,139.99953996435943 139.3686856875429,139.506317213054 139.78543030872243,139.6378435006627 139.91803086991422,139.8789746112525 139.80437324603554,140.20778889313806 140.36318989709252,140.602364707971 141.70813844708027,143.21091293994687 141.6797240411397,143.56163730195112" stroke="#4dd2ff" stroke-linecap="round" stroke-linejoin="round" stroke-width="0.5"><title>2022-10-28 10.2km</title></polyline><polyline fill="none" points="154.59222933859564,170.25 153.5698316624621,168.09891747044458 153.88352185854455,167.57458580177627 153.2909959325916,166.16291328675288 152.9075968040852,165.74613090182538 152.88436049316078,165.16801122606557 152.48934320919216,164.8587833855272 152.861124182411,164.8050045568816 153.04701466899132,164.52266534770024 152.79141524992883,164.15965690747544 156.89262410992524,161.83369029629102 161.0983963686158,156.81860577009502 165.04856920830207,152.8655632967275 173.26260508375708,143.34550665220013 176.94556034897687,138.26248384725477 177.7820675385301,137.69769147141778 178.4559205523692,136.6084422178683 178.53724764025537,135.92261400914867 182.51065679080784,129.79034481826238 178.5023931740434,135.9091663616855 178.4791568631772,136.36638560930442 178.56048395106336,135.88227106252452 182.51065679080784,129.75 178.59533841733355,135.7881374725548 178.4675387078314,136.56809948052978 178.04928511299659,137.30771437504154 177.596177052008,137.9262981999491 176.8526151056867,138.3835104710306 173.26260508375708,143.3858473214059 172.35638896166347,144.2195517286018 165.06018736370606,152.8790092196723 161.0867782132118,156.80516024766257 160.26188917906256,158.25726877203851 159.7042177193216,158.67407475532673 156.9623330424074,161.9143603432458 154.4411933182273,163.25885388207098 154.73164720350178,164.76467042102013 155.6262451701332,166.1898024277907 156.0793532311218,167.35947477239824 156.55569760297658,167.95102926148684 155.1150463320664,169.1610188409686 154.30177545332117,169.57779046686483" stroke="#4dd2ff" stroke-linecap="round" stroke-linejoin="round" stroke-width="0.5"><title>2022-10-27 10.0km</title></polyline><polyline fill="none" points="19.94048223673599,218.95668113363354 19.079472077137325,217.38636033880175 19.519335963006597,216.9315044760151 18.630249385139905,215.48028469630663 18.7612726703519,215.04708093149384 18.34948520269245,214.74383724820655 18.723837445955724,214.41893234410963 18.536661324382294,214.12651708338672 19.453824320458807,213.47670251969976 21.887113902019337,212.2312135284592 25.452819019556046,207.95311870682053 28.400842935719993,205.061245906596 34.165867482777685,198.17242365229322 35.02687764231814,197.38169699440186 37.86259588546818,193.3846463716327 38.58322395384312,192.90802327807614 38.96693500329275,192.36640353682014 39.2476991857402,191.81394856270344 39.275775603950024,191.35898349071067 43.047374455374666,185.29259676380752 44.90977686585393,182.67094410771097 47.21204316226067,178.5 44.965929702389985,182.5626099643123 43.066092067514546,185.19509844070126 39.26641679788008,191.29398832175502 39.219622767472174,191.83561351764365 38.85462933027884,192.51805734205118 38.52707111736527,192.9621851007032 37.90938991587609,193.3413170876447 34.97072480584029,197.4358565418297 34.21266151312739,198.12909631623916 28.447636966069695,204.9854279606152 25.331154540530406,208.07225785008632 21.849678677681368,212.22038312556833 19.463183126528747,213.46587224338873 18.527302518254146,214.115686873105 18.733196252025664,214.3539512444404 18.592814160860144,214.6355357235807 17.91898012283491,214.9712700915843 17.78795683773933,215.32866357897 18.302691172226332,215.6535657090717 18.88293714937754,216.80154530143045 18.78934908856172,217.08312331265915 18.134232662792783,217.61378754209727 19.032678046729416,219.0 19.6971532786265,218.5884700585957 19.257289392699022,217.60295768625656 19.509977156936657,218.02532124758727" stroke="#4dd2ff" stroke-linecap="round" stroke-linejoin="round" stroke-width="0.5"><title>2022-10-23 11.0km</title></polyline><polyline fill="none" points="63.21083027264103,219.0 62.698788356326986,218.35192274843575 63.37084337149281,218.0001084178657 63.41884730110178,217.64829340798315 61.93072548188502,215.18556931595958 62.2027477499214,214.55599540800904 61.434684875421226,214.03752114436065 61.21066653705202,213.33387514065544 63.73887349880533,211.70436869746482 67.46717870206339,209.88967391298502 73.64368431770708,202.57515960928868 78.6360930018127,197.61223327975313 88.15687238337705,186.33403588736837 90.12503349932376,184.42648845190706 94.47738978802226,178.5 89.98102171032224,184.6116881078924 85.83668245014269,189.05642334619188 78.92411657969933,197.37149087696162 74.2037301636883,201.96406030948856 68.50726384465815,208.61196980150999 73.40366466937121,202.87144944087777 79.82018993329257,196.59370555474015 73.65968562761554,202.74182269885205 67.49918132188031,209.87115652611828 61.242669156810734,213.46349434556032 61.38668094569584,214.1115889866196 60.522610211977735,215.1115019102872 61.21066653705202,215.59293950874417" stroke="#4dd2ff" stroke-linecap="round" stroke-linejoin="round" stroke-width="0.5"><title>2022-10-20 8.4km</title></polyline><polyline fill="none" points="110.26472881028894,219.0 109.73255753389094,218.53543970142346 109.62052147567738,218.03846597173833 109.13503189012408,217.24978550124797 109.85392993025016,216.51511897715682 109.91928429756081,216.12617582065286 109.27507696289103,215.65079891894857 109.15370456653181,214.90531722397282 108.40679751179414,214.7216470181229 108.21073440997861,214.25706802206696 109.48047640291043,213.3927296030597 111.84256996336626,212.20425280056952 115.35303312039468,208.0120648768425 118.51805176463677,204.88942569074425 123.60635607474251,198.8275700196682 124.68937130406266,197.73618315353815 125.10950652230531,197.59570680198522 125.3149059623247,197.2931417215732 125.5949961078586,197.2931417215732 125.51096906419843,197.01218766113016 125.80973188602366,196.97976983710396 126.05247667885851,196.63397909879131 126.09915836976143,195.96400634064048 127.94775333011057,193.35971726240678 128.47058826842112,193.02472108700022 128.8347054576152,192.51682164484373 129.19882264675107,191.84682292155776 129.27351335220737,191.33891784773732 133.00804862566292,185.27628893221117 135.06204302608967,182.44478218928998 137.1907281319145,178.5 134.9500069678761,182.52043411433988 133.12008468387648,185.0817603495525 129.24550433765398,191.31730481197155 129.19882264675107,191.83601645592717 128.84404179576086,192.48440244908124 128.48926094477065,193.00310839424492 127.64899050822714,193.65148726415646 124.98813412588788,197.36878307245206 123.60635607474251,198.80595850734971 118.4620337355882,204.9110359658007 115.34369678224903,208.0120648768425 113.37372942548245,210.43231725514488 113.08430294174468,210.97254463703575 111.95460602157982,212.19344840505073 108.22007074812427,214.26787220781262 108.28542511543492,214.64601801761455 107.80927186808549,215.18622398375737 108.46281554090092,215.78044737571327 109.77923922479386,218.27614934973826 109.67653950478416,218.57865469856188 109.04166850826005,218.89196290240943 109.67653950478416,218.52463594939763 109.75123021024046,218.2653455713371 110.00331134116277,218.87035546970583" stroke="#4dd2ff" stroke-linecap="round" stroke-linejoin="round" stroke-width="0.5"><title>2022-10-19 11.1km</title></polyline><polyline fill="none" points="153.9918756315019,219.0 155.32601137156598,217.76492944415804 154.38258681248408,216.07771212502848 153.68693031946896,215.34988478916785 153.57257582742022,214.01552199230355 155.60236806061585,212.8245066261079 159.18547547684284,208.55659418660798 162.28257630206645,205.50168036409013 168.20995080453577,198.4540960855884 169.03902087162714,197.64894385008665 171.9074127128115,193.645152862744 172.62212828791235,193.1818947767897 173.2606075349613,192.1561019715955 173.39402110892115,191.42811409341812 176.6245355081628,186.47546075555874 177.2344261322287,185.30620446112152 179.18798203737242,182.64775406625995 181.42742417257978,178.5 179.15939341438934,182.59259880341415 177.2344261322287,185.2620813351532 176.5768878031522,186.53061404288746 173.36543248593807,191.49429501159466 173.2606075349613,192.167132053386 172.59353966487106,193.22601467977802 171.85023546678713,193.83266152531723 168.9056072976091,197.83644558958622 168.3243052965263,198.332772158632 162.30163538409397,205.44653672476852 159.0997096078936,208.62276465316972 155.66907484759577,212.780394694797 153.57257582742022,213.9934662710075 153.8203438934288,215.21755202170607 155.3450704535935,217.76492944415804 154.06811195949558,218.8786990501103" stroke="#4dd2ff" stroke-linecap="round" stroke-linejoin="round" stroke-width="0.5"><title>2022-10-18 10.4km</title></polyline><polyline fill="none" points="20.363211199000943,267.75 20.164712316705845,267.465612311149 20.6278763753362,266.90777273878484 20.070189039455727,266.03272444734466 20.013475073094014,265.146730803579 19.068242300418206,264.1404081882283 18.98317135090474,263.84507259114616 19.663738947187085,263.82319584804645 19.909499468107242,263.51692097716295 19.767714552173857,262.49964461471245 21.79996501340065,261.29640209466015 25.31623092771042,257.0849473174312 28.482760716113262,253.93445258964493 34.381013217614964,246.9330228672552 35.042676158424,246.33131623695954 37.953993098286446,242.27244358011376 38.6534653500421,241.8019982994374 39.248961996810976,240.87204227175243 39.3623899295344,240.22653865412576 43.15277334791608,234.11047312984738 45.156666825991124,231.32038136765914 47.3685115139815,227.25 45.19447613687953,231.21096452918573 43.14332102017943,234.11047312984738 39.43800855136942,240.08430852256424 39.28677130769938,240.80639801303187 38.918130526377354,241.45189815043705 38.58729905594373,241.92234496244782 37.944540770491585,242.4037302679062 35.09939012484392,246.27661546730815 34.26758528489154,247.07524394261418 28.482760716113262,253.94539196707046 25.325683255447075,257.09588637454 21.790512685722206,261.29640209466015 18.075747889117338,263.462228944205 18.113557200005744,263.8669493298512 17.63148848596029,264.39198972426675 18.15136651089415,264.7638917871518 19.59757265308872,267.3890462665222" stroke="#4dd2ff" stroke-linecap="round" stroke-linejoin="round" stroke-width="0.5"><title>2022-10-17 10.6km</title></polyline><polyline fill="none" points="64.68783534012618,267.75 64.17656194485608,267.058089119324 63.838601564930286,266.27592315074435 64.21122454793658,265.91492138164176 64.25455280177994,265.5639461731189 63.5699663911073,264.8619920105921 63.62196029571351,264.32048110136384 64.09857108796132,264.1901169200937 64.3498749602295,263.9494441328643 64.18522759561893,262.96669082499284 66.0310112091247,262.00398421518184 67.18354276119499,260.7805310094773 69.32395850075409,258.0126628462167 72.18362325409544,255.16448554323142 77.46100457155262,248.89620003596792 78.19758488677326,248.19412724886206 80.96192748163594,244.3627276833431 81.49919782925281,244.05179605679587 82.09712773220963,243.1189952940622 82.21844684294774,242.5071534421295 85.6240475946106,237.0304982570524 87.48716250964208,234.42246027773217 91.4300336088927,227.25 87.695138128096,234.0111864517021 85.71936975308927,236.83991320314817 82.54774157211068,241.96551978201023 82.15778728757869,242.6576067085698 82.08846208141767,243.1490857789977 81.47320087696426,244.12200650976592 80.87527097397833,244.57335822812456 78.154256632959,248.2342458284984 77.56499238076503,248.77584505601408 72.14896065101493,255.2046012875071 69.00332942241221,258.3736935327179 66.4556280967663,261.5727688331608 66.02234555833274,262.0240406987068 64.21989019869943,262.97671896942484 64.4018688648357,264.1901169200937 64.97380181547487,265.19291388087004 64.35854061099235,265.8046150220689" stroke="#4dd2ff" stroke-linecap="round" stroke-linejoin="round" stroke-width="0.5"><title>2022-10-14 11.1km</title></polyline></svg>