<?xml version="1.0" encoding="utf-8" ?>
<svg baseProfile="full" height="200mm" version="1.1" viewBox="0,0,200,200" width="200mm" xmlns="http://www.w3.org/2000/svg" xmlns:ev="http://www.w3.org/2001/xml-events" xmlns:xlink="http://www.w3.org/1999/xlink"><defs /><rect fill="#1a1a1a" height="200" width="200" x="0" y="0" /><text alignment-baseline="middle" fill="#e1ed5e" style="dominant-baseline: central; font-size:9.0px; font-family:Arial;" text-anchor="middle" x="100.0" y="100.0">2023</text><line stroke="#e1ed5e" stroke-width="0.3" x1="100.0" x2="100.0" y1="15.0" y2="10.0" /><path d="M 100.0 14.0 a86.0,86.0 0 0,1 42.46469731375804,11.215312516191453" fill="none" id="id37" stroke="none" /><text fill="#e1ed5e" style="font-size:6.75px; font-family:Arial;" text-anchor="middle"><textPath startOffset="22.20632615414155" xlink:href="#id37">January</textPath></text><path d="M 102.52436894288641 79.15227682838746 l 1.0768195700498422 -8.893009227290332 a29.957965924422425,29.957965924422425 0 0,0 0.5114042641794889,0.06639495089115587 l -1.2297385627371773 8.873155953235038" fill="#ff0000" stroke="none" /><line stroke="#e1ed5e" stroke-width="0.3" x1="143.23703022742887" x2="145.7803849466894" y1="26.81831364943548" y2="22.513508569990506" /><path d="M 143.74570117128098 25.957352633546492 a86.0,86.0 0 0,1 28.547481713284135,27.462654790039103" fill="none" id="id38" stroke="none" /><text fill="#e1ed5e" style="font-size:6.75px; font-family:Arial;" text-anchor="middle"><textPath startOffset="19.985693538727396" xlink:href="#id38">February</textPath></text><path d="M 114.68862486808459 84.99185889309783 l 16.157039196727247 -16.508497310807318 a44.09935927824651,44.09935927824651 0 0,0 0.5379370039355132,0.5356269314847972 l -16.438812000830083 16.227934528672403" fill="#ffdc14" stroke="none" /><path d="M 115.19652480421416 85.50635884689758 l 19.87817914215702 -18.958755305924537 a48.46955421475944,48.46955421475944 0 0,0 0.5706313186387054,0.6087097046056783 l -20.201577782766186 18.613776184440802" fill="#e5ff1a" stroke="none" /><path d="M 115.68641384162765 86.03803664274999 l 24.067861046109194 -21.422015089351603 a53.220562779430594,53.220562779430594 0 0,0 0.6031869984033529,0.689547010590832 l -24.433039908090393 21.004552522557823" fill="#a6ff21" stroke="none" /><path d="M 115.9244219780498 86.31012108654704 l 16.12070557560036 -13.858619649340763 a42.25884490842074,42.25884490842074 0 0,0 0.4694542858775493,0.5556858009748564 l -16.356870474965028 13.579074898736799" fill="#ffc112" stroke="none" /><path d="M 116.60985879189232 87.15038557335679 l 19.96348609111394 -15.44402647225899 a46.24002239670037,46.24002239670037 0 0,0 0.4816097820349629,0.6337420194939212 l -20.226371813373014 15.098099676884035" fill="#fffa17" stroke="none" /><path d="M 117.2510076193507 88.02491185347247 l 34.88188791843099 -24.213871546375618 a63.46242668546348,63.46242668546348 0 0,0 0.6152094010691458,0.9027438832161218 l -35.29352178516887 23.609849639889088" fill="#30ff33" stroke="none" /><path d="M 117.45458315368197 88.32363383020206 l 21.02424065105116 -14.064313660325942 a46.29473490055476,46.29473490055476 0 0,0 0.43738243664204596,0.6661634580899991 l -21.26321972305113 13.700332138258268" fill="#fffb17" stroke="none" /><line stroke="#e1ed5e" stroke-width="0.3" x1="172.23445277983987" x2="176.4835382374775" y1="55.19839476539836" y2="52.563006222186495" /><path d="M 173.08426987136738 54.67131705675599 a86.0,86.0 0 0,1 12.851231095245387,41.99856678651699" fill="none" id="id39" stroke="none" /><text fill="#e1ed5e" style="font-size:6.75px; font-family:Arial;" text-anchor="middle"><textPath startOffset="22.20632615414155" xlink:href="#id39">March</textPath></text><path d="M 118.21658344932153 89.55222093294921 l 22.147160771183774 -12.702087817043447 a46.53115283602652,46.53115283602652 0 0,0 0.3925065793693349,0.6982254076369685 l -22.362524991845543 12.318978899471686" fill="#fffe18" stroke="none" /><path d="M 118.3937258080291 89.86733742301442 l 43.75407164489413 -24.103069110307118 a70.95374586597856,70.95374586597856 0 0,0 0.5801039759666596,1.0748445649411296 l -44.16248372007926 23.34634356203353" fill="#3aff96" stroke="none" /><path d="M 119.04729006885535 91.15688171328212 l 39.445278972451135 -18.313327856351233 a64.48917118535033,64.48917118535033 0 0,0 0.4587872740974012,1.0108769439159024 l -39.75466856351188 17.631628903593267" fill="#31ff41" stroke="none" /><path d="M 119.85752413597 93.16781622104841 l 27.575129542266197 -9.487504659248744 a50.161627422557004,50.161627422557004 0 0,0 0.2738889499563132,0.8188930991258181 l -27.734355785994282 9.011438457200612" fill="#ceff1d" stroke="none" /><path d="M 119.97218684219823 93.5106431181261 l 28.15979690840948 -9.149672657460744 a50.60896269141411,50.60896269141411 0 0,0 0.2620689126128919,0.8308300697712656 l -28.313121304790577 8.66359242126306" fill="#c8ff1d" stroke="none" /><path d="M 120.08093135843002 93.85539295169968 l 34.07223679573952 -10.425836462937184 a56.63166269228615,56.63166269228615 0 0,0 0.2772095695964873,0.9346128604204417 l -34.24665226244771 9.837794215770213" fill="#7cff26" stroke="none" /><path d="M 120.94382443527127 98.46500227214037 l 26.155889196123354 -1.916996134601988 a47.226044570616466,47.226044570616466 0 0,0 0.052442068980281316,0.8112555957158119 l -26.18501185610805 1.466481474633141" fill="#f6ff19" stroke="none" /><line stroke="#e1ed5e" stroke-width="0.3" x1="184.98032266829074" x2="189.97916517819016" y1="98.17113171792111" y2="98.06355123074" /><path d="M 185.9800911702706 98.14961562048488 a86.0,86.0 0 0,1 -9.607161424134198,41.387399972396054" fill="none" id="id40" stroke="none" /><text fill="#e1ed5e" style="font-size:6.75px; font-family:Arial;" text-anchor="middle"><textPath startOffset="21.466115282336823" xlink:href="#id40">April</textPath></text><path d="M 120.81339534386255 102.79330883721812 l 23.394016893245702 3.139646993982771 a44.60375837972187,44.60375837972187 0 0,0 -0.10867588693927092,0.7600789001369158 l -23.336506955289828 -3.5418713661000965" fill="#ffe315" stroke="none" /><path d="M 120.70491114924044 103.5080841355445 l 28.757608137431745 4.872472436899622 a50.16746498128398,50.16746498128398 0 0,0 -0.15158591104222066,0.8501742909565173 l -28.669475784050338 -5.3667654785893575" fill="#ceff1d" stroke="none" /><path d="M 120.32669344350535 105.2749913415812 l 24.866617061373812 6.4531494046353775 a46.69030520090318,46.69030520090318 0 0,0 -0.20857654033744052,0.7761908989731503 l -24.751852444694595 -6.880231236784076" fill="#fdff18" stroke="none" /><path d="M 120.02730092923936 106.31721596034902 l 28.242502288289856 8.908538741498532 a50.61420264016639,50.61420264016639 0 0,0 -0.2692380306447865,0.8286294544969517 l -28.08497200662882 -9.393367095973279" fill="#c8ff1d" stroke="none" /><path d="M 119.9155931802556 106.66101706037122 l 19.983755306927257 6.683814728736993 a42.07187356395308,42.07187356395308 0 0,0 -0.23562086145323705,0.6848245150635621 l -19.86574361453079 -7.026811946889857" fill="#ffbf11" stroke="none" /><path d="M 119.79798401119884 107.00284435728193 l 40.58813398453922 14.356632720051474 a64.05240438588024,64.05240438588024 0 0,0 -0.3766151412351723,1.0362831189122361 l -40.33499458229882 -15.053163635969842" fill="#31ff3b" stroke="none" /><path d="M 119.12269723197855 108.67885076344098 l 29.423766132814873 13.35399876216457 a53.312339692112616,53.312339692112616 0 0,0 -0.3864519684189005,0.8323831595932387 l -29.18953954755614 -13.85850198903664" fill="#a5ff21" stroke="none" /><path d="M 118.97047184881838 109.00673069616215 l 30.721243559100003 14.585718773529331 a55.007910814368316,55.007910814368316 0 0,0 -0.41346759916553705,0.8518657193385588 l -30.465622703319752 -15.112373448833166" fill="#90ff24" stroke="none" /><path d="M 118.64920377521936 109.65438752849418 l 37.12495927020858 19.218983721461342 a62.804687967983234,62.804687967983234 0 0,0 -0.5052711668528097,0.9557826312746649 l -36.78863559513088 -19.85518136782214" fill="#34ff2f" stroke="none" /><line stroke="#e1ed5e" stroke-width="0.3" x1="174.80103733775053" x2="179.2010983576182" y1="140.37084112569926" y2="142.7455964860345" /><path d="M 175.68104954172406 140.8457921977663 a86.0,86.0 0 0,1 -30.038265399797805,32.042727171017184" fill="none" id="id41" stroke="none" /><text fill="#e1ed5e" style="font-size:6.75px; font-family:Arial;" text-anchor="middle"><textPath startOffset="22.206326154141568" xlink:href="#id41">May</textPath></text><path d="M 118.12598468904814 110.60418214915192 l 36.032336798954546 21.07987340994323 a62.74554297374183,62.74554297374183 0 0,0 -0.5534130725445577,0.9275521418451373 l -35.66414285071176 -21.696987645674472" fill="#34ff2f" stroke="none" /><path d="M 117.35343817320211 111.8261652097733 l 38.51171532734694 26.24528369693803 a67.60436818354445,67.60436818354445 0 0,0 -0.6636144347253712,0.9559860879252082 l -38.05423998545943 -26.90431104705026" fill="#36ff6b" stroke="none" /><path d="M 116.93607887273984 112.41649034213515 l 26.971928356124423 19.774157315813316 a54.44401615832707,54.44401615832707 0 0,0 -0.5606145281004088,0.7510347747073378 l -26.627552561328923 -20.235504970029968" fill="#97ff23" stroke="none" /><path d="M 116.71984013943494 112.70617746262583 l 29.559198098874 22.46339759022949 a58.12614205038283,58.12614205038283 0 0,0 -0.6122431601408975,0.7914068156906415 l -29.168148121515035 -22.968882400033383" fill="#6aff28" stroke="none" /><path d="M 116.0416608686014 113.55231037782055 l 48.12498260580419 40.656931133461654 a84.0,84.0 0 0,0 -0.942629961716885,1.096491603353888 l -47.41801013451653 -41.47929983597707" fill="#4dd2ff" stroke="none" /><path d="M 115.80600337817218 113.82643327865902 l 8.719292291966209 7.627273652141786 a32.584531127214326,32.584531127214326 0 0,0 -0.3729239854659152,0.4189840510109823 l -8.586709456851954 -7.776231872893635" fill="#ff2b04" stroke="none" /><path d="M 114.81725581225074 114.88116024355365 l 22.59734526497638 22.694803965589482 a53.026459998899135,53.026459998899135 0 0,0 -0.6523518317170778,0.6384635691953333 l -22.203343480883508 -23.080417637707388" fill="#a9ff21" stroke="none" /><path d="M 114.55890576462653 115.13401014063108 l 26.022743754084992 27.05069146187093 a58.535624426084965,58.535624426084965 0 0,0 -0.7321529022995555,0.6922962678042336 l -25.55325501739463 -27.494622366421083" fill="#65ff29" stroke="none" /><path d="M 114.0293411484842 115.62618273729858 l 38.94806781177716 43.38119790873313 a79.29991696621414,79.29991696621414 0 0,0 -1.02356423369357,0.9031764284617841 l -38.195561225177 -44.045197478967204" fill="#46fff9" stroke="none" /><path d="M 113.48314897796784 116.09983520530334 l 27.27369650115864 32.56672605380447 a63.47877313083395,63.47877313083395 0 0,0 -0.843753418292876,0.6943516208147786 l -26.709072954321073 -33.03137279347643" fill="#30ff33" stroke="none" /><path d="M 112.92097659922987 116.55440617244103 l 25.613236175385666 32.81577919298039 a62.62827442278301,62.62827442278301 0 0,0 -0.8555358436153413,0.6559884029643499 l -25.044571603276832 -33.251806937772116" fill="#36ff2f" stroke="none" /><path d="M 112.63410532772338 116.77436683061366 l 25.046910473354366 33.25491226764171 a62.63216201674825,62.63216201674825 0 0,0 -0.8667546484403126,0.6412043677390379 l -24.47077085449549 -33.68112658412051" fill="#36ff2f" stroke="none" /><path d="M 112.04921762599082 117.19931262002967 l 35.216304185062114 50.26851068690325 a82.37679730267888,82.37679730267888 0 0,0 -1.1683505687342448,0.8036021747646875 l -34.345796731704986 -50.86725365103303" fill="#4be3ff" stroke="none" /><path d="M 111.7513745106137 117.40417183066458 l 15.40095161176461 22.80931545197632 a48.52188550836735,48.52188550836735 0 0,0 -0.6962319889768457,0.461424597923878 l -15.0060449240478 -23.071038070991516" fill="#e4ff1a" stroke="none" /><line stroke="#e1ed5e" stroke-width="0.3" x1="143.8653032363475" x2="146.44561519142675" y1="172.8068346515853" y2="177.08958963109032" /><path d="M 144.38136562736335 173.6633856474863 a86.0,86.0 0 0,1 -40.68145358897372,12.25698825130547" fill="none" id="id42" stroke="none" /><text fill="#e1ed5e" style="font-size:6.75px; font-family:Arial;" text-anchor="middle"><textPath startOffset="21.466115282336833" xlink:href="#id42">June</textPath></text><path d="M 110.8373102113329 117.98757091392108 l 21.568621007921305 35.79920592194207 a62.7945996131672,62.7945996131672 0 0,0 -0.9306522345488744,0.5498457442434072 l -20.949200902344046 -36.16517023847922" fill="#34ff2f" stroke="none" /><path d="M 110.5260780823613 118.17145234162733 l 19.120004301065283 33.007378836636676 a59.14526998381327,59.14526998381327 0 0,0 -0.8853518357233473,0.5027258785872694 l -18.549003698420737 -33.33160788101858" fill="#5dff2a" stroke="none" /><path d="M 110.21172684928248 118.3499491758327 l 30.278548597181075 54.408998211237126 a83.26660093101486,83.26660093101486 0 0,0 -1.258424746130517,0.6861935089190819 l -29.337501039181912 -54.92213237191598" fill="#4cdaff" stroke="none" /><path d="M 109.57404056367764 118.69057910512821 l 19.320332558893604 37.71742992184212 a63.3778216770909,63.3778216770909 0 0,0 -0.9752521625967028,0.489011680228775 l -18.66822648861414 -38.044409442980196" fill="#30ff32" stroke="none" /><path d="M 108.2653958097858 119.30500536409082 l 16.639112857463314 38.86301035780235 a63.2752131958439,63.2752131958439 0 0,0 -1.0049566431998478,0.42007195836193345 l -15.967684754766003 -39.143667359184256" fill="#2fff31" stroke="none" /><path d="M 107.93186726928326 119.44442032107085 l 18.0971561515294 44.363918214958716 a68.91309111460441,68.91309111460441 0 0,0 -1.1022121376286742,0.43859295662852255 l -17.330822937858862 -44.66885801599331" fill="#38ff7c" stroke="none" /><path d="M 107.2578585660854 119.70592522655815 l 14.80738679109056 40.20376730258287 a63.84392149303323,63.84392149303323 0 0,0 -1.0345160788938126,0.37094065957222494 l -14.113151151567012 -40.45269550319505" fill="#30ff38" stroke="none" /><path d="M 106.57524785965236 119.94407469862006 l 14.434229405535048 43.78197683581001 a67.0999834510059,67.0999834510059 0 0,0 -1.1000520022348796,0.35220191261834183 l -13.678456058209226 -44.023951595088064" fill="#35ff65" stroke="none" /><path d="M 106.2309692047433 120.05430185196036 l 12.932020966836843 41.62155894261241 a64.58430147541735,64.58430147541735 0 0,0 -1.0644877618541762,0.320721430520402 l -12.213658230542421 -41.83799574223854" fill="#31ff43" stroke="none" /><path d="M 105.88484417918355 120.15858648285463 l 9.545890733075355 32.69953426791967 a55.06440328593276,55.06440328593276 0 0,0 -0.9121518880997305,0.257783234815927 l -8.98160767687102 -32.859006296074114" fill="#8fff24" stroke="none" /><path d="M 105.53697534728816 120.25689768951611 l 12.715065158402133 46.51777511623415 a69.22422921879566,69.22422921879566 0 0,0 -1.1521204619512702,0.3042854854612593 l -11.912454253639366 -46.72975195099899" fill="#38ff80" stroke="none" /><path d="M 104.83641907484287 120.43548508189849 l 9.660298976526583 40.817987971379885 a62.945554214333534,62.945554214333534 0 0,0 -1.056525692659609,0.24046180789698993 l -8.956253134474112 -40.97822651285456" fill="#32ff2f" stroke="none" /><path d="M 104.48393922423573 120.51570834832081 l 9.094957285853205 41.61285017167095 a63.59515873243612,63.59515873243612 0 0,0 -1.0714528652995214,0.22453336546459127 l -8.377312959124305 -41.763239517862075" fill="#30ff35" stroke="none" /><path d="M 101.26447882468166 120.96189622390904 l 1.6419960147925086 27.22018699745167 a48.26966686794746,48.26966686794746 0 0,0 -0.8298059844302657,0.04289149101333526 l -1.1732019619487635 -27.244418295227206" fill="#e8ff1a" stroke="none" /><line stroke="#e1ed5e" stroke-width="0.3" x1="102.19456741930631" x2="102.32365962044197" y1="184.97166512339345" y2="189.96999836594603" /><path d="M 102.22038585953345 185.97133177190398 a86.0,86.0 0 0,1 -42.740103519485714,-10.115201625700543" fill="none" id="id43" stroke="none" /><text fill="#e1ed5e" style="font-size:6.75px; font-family:Arial;" text-anchor="middle"><textPath startOffset="22.20632615414155" xlink:href="#id43">July</textPath></text><path d="M 100.54218724476979 120.99299961872073 l 0.7837390169640768 30.345665714229707 a51.355784860327496,51.355784860327496 0 0,0 -0.8839071812248666,0.015217263720951247 l -0.26127214584654224 -30.354660455229816" fill="#beff1e" stroke="none" /><path d="M 99.81925306533755 120.99922214144158 l -0.3895189264686364 45.25440213128067 a66.25607845642105,66.25607845642105 0 0,0 -1.1403627401802165,-0.019632378742326675 l 1.1684413565415208 -45.24099227525918" fill="#34ff59" stroke="none" /><path d="M 99.45781275523022 120.99299961872073 l -1.0564040553347538 40.903009328952784 a61.91664895482676,61.91664895482676 0 0,0 -1.065201198089733,-0.03668768303455709 l 1.7603256050991298 -40.87876484749213" fill="#3eff2e" stroke="none" /><path d="M 97.2962882734958 120.8252237178851 l -4.96639301573884 38.253429391094855 a59.57447238480728,59.57447238480728 0 0,0 -1.0158054883871035,-0.1407813846497558 l 5.624127095312774 -38.1622734409525" fill="#58ff2a" stroke="none" /><path d="M 96.93821686468263 120.77559828337769 l -5.536727122939669 37.56922467304434 a58.975017969285794,58.975017969285794 0 0,0 -1.0030362553177212,-0.15665363459817214 l 6.1825992418659075 -37.46835273109906" fill="#5fff29" stroke="none" /><line stroke="#e1ed5e" stroke-width="0.3" x1="58.666819895761336" x2="56.23545636021788" y1="174.27360380694188" y2="178.64263932499728" /><path d="M 58.180547188652646 175.14741091055294 a86.0,86.0 0 0,1 -31.652253787137756,-30.449443065178592" fill="none" id="id44" stroke="none" /><text fill="#e1ed5e" style="font-size:6.75px; font-family:Arial;" text-anchor="middle"><textPath startOffset="22.20632615414155" xlink:href="#id44">August</textPath></text><line stroke="#e1ed5e" stroke-width="0.3" x1="26.63291911575756" x2="22.317208475507996" y1="142.92168965132927" y2="145.44649492493687" /><path d="M 25.769776987707644 143.4266507060508 a86.0,86.0 0 0,1 -11.730757126820373,-40.83630448921669" fill="none" id="id45" stroke="none" /><text fill="#e1ed5e" style="font-size:6.75px; font-family:Arial;" text-anchor="middle"><textPath startOffset="21.46611528233685" xlink:href="#id45">September</textPath></text><line stroke="#e1ed5e" stroke-width="0.3" x1="15.007084014347285" x2="10.007500721073583" y1="101.09737516637583" y2="101.16192664675087" /><path d="M 14.007167355692545 101.11028546245083 a86.0,86.0 0 0,1 10.666146001902534,-42.60595125391555" fill="none" id="id46" stroke="none" /><text fill="#e1ed5e" style="font-size:6.75px; font-family:Arial;" text-anchor="middle"><textPath startOffset="22.20632615414155" xlink:href="#id46">October</textPath></text><line stroke="#e1ed5e" stroke-width="0.3" x1="26.266209847984243" x2="21.928928074336255" y1="57.711370442889674" y2="55.22380399835377" /><path d="M 25.398753493254645 57.213857153982495 a86.0,86.0 0 0,1 29.58750427330803,-30.492523968695096" fill="none" id="id47" stroke="none" /><text fill="#e1ed5e" style="font-size:6.75px; font-family:Arial;" text-anchor="middle"><textPath startOffset="21.46611528233685" xlink:href="#id47">November</textPath></text><line stroke="#e1ed5e" stroke-width="0.3" x1="56.762969772571076" x2="54.21961505331055" y1="26.818313649435495" y2="22.513508569990535" /><path d="M 56.25429882871897 25.957352633546506 a86.0,86.0 0 0,1 42.265352541879196,-11.944610805530505" fill="none" id="id48" stroke="none" /><text fill="#e1ed5e" style="font-size:6.75px; font-family:Arial;" text-anchor="middle"><textPath startOffset="22.20632615414155" xlink:href="#id48">December</textPath></text></svg>