<?xml version="1.0" encoding="utf-8" ?>
<svg baseProfile="full" height="200mm" version="1.1" viewBox="0,0,200,200" width="200mm" xmlns="http://www.w3.org/2000/svg" xmlns:ev="http://www.w3.org/2001/xml-events" xmlns:xlink="http://www.w3.org/1999/xlink"><defs /><rect fill="#1a1a1a" height="200" width="200" x="0" y="0" /><text alignment-baseline="middle" fill="#e1ed5e" style="dominant-baseline: central; font-size:9.0px; font-family:Arial;" text-anchor="middle" x="100.0" y="100.0">2021</text><line stroke="#e1ed5e" stroke-width="0.3" x1="100.0" x2="100.0" y1="15.0" y2="10.0" /><path d="M 100.0 14.0 a86.0,86.0 0 0,1 42.46469731375804,11.215312516191453" fill="none" id="id13" stroke="none" /><text fill="#e1ed5e" style="font-size:6.75px; font-family:Arial;" text-anchor="middle"><textPath startOffset="22.20632615414155" xlink:href="#id13">January</textPath></text><line stroke="#e1ed5e" stroke-width="0.3" x1="143.23703022742887" x2="145.7803849466894" y1="26.81831364943548" y2="22.513508569990506" /><path d="M 143.74570117128098 25.957352633546492 a86.0,86.0 0 0,1 28.547481713284135,27.462654790039103" fill="none" id="id14" stroke="none" /><text fill="#e1ed5e" style="font-size:6.75px; font-family:Arial;" text-anchor="middle"><textPath startOffset="19.985693538727396" xlink:href="#id14">February</textPath></text><path d="M 112.19680574252982 82.90503203632743 l 6.144171597400797 -8.611633147080664 a31.578802866024354,31.578802866024354 0 0,0 0.4397794667671059,0.31951848554982076 l -6.291496380521692 8.504595426714168" fill="#ff810b" stroke="none" /><path d="M 113.34407831869373 83.78471172551755 l 4.653856479923469 -5.655214441023639 a28.323921798441596,28.323921798441596 0 0,0 0.37379816429511664,0.3130452127374412 l -4.750512181177704 5.574268070892378" fill="#ff5407" stroke="none" /><path d="M 113.89432698308785 84.25364557470407 l 11.797379149652464 -13.369896476895779 a38.830655809688125,38.830655809688125 0 0,0 0.49738189320228765,0.44655437467513914 l -12.025772030450742 13.164843093451342" fill="#ffdf14" stroke="none" /><path d="M 114.16331599549186 84.49514656593476 l 42.48994798647556 -46.51456030219571 a84.0,84.0 0 0,0 1.0591684648206128,0.984381655701438 l -43.28432433509102 45.77627406041963" fill="#4dd2ff" stroke="none" /><path d="M 114.68862486808459 84.99185889309783 l 1.7401601218699476 -1.778013183138354 a23.487868189667655,23.487868189667655 0 0,0 0.28651195050388634,0.2852815771352246 l -1.7705078725411565 1.7477957553530108" fill="#ff0f01" stroke="none" /><path d="M 114.94478906791727 85.2469230424477 l 7.640428774750336 -7.542417172321962 a31.736117019824725,31.736117019824725 0 0,0 0.38043403738999376,0.3920707166263779 l -7.769127075843439 7.4097822601454695" fill="#ff830c" stroke="none" /><path d="M 115.4437574822437 85.77008943001954 l 7.747957725122181 -7.138984515603792 a31.53546149080861,31.53546149080861 0 0,0 0.36439429889775343,0.4023732861252685 l -7.86969566463597 7.004558442208975" fill="#ff800b" stroke="none" /><path d="M 115.9244219780498 86.31012108654704 l 8.086907118555759 -6.952138004755834 a31.664440425138032,31.664440425138032 0 0,0 0.35176085147877034,0.41637389706686645 l -8.205378583521647 6.811905158059861" fill="#ff820c" stroke="none" /><path d="M 116.15771136456269 86.58626213691792 l 43.52453275952093 -36.13300546572445 a77.56835719658724,77.56835719658724 0 0,0 0.8440231707893299,1.0346726089646419 l -44.14005442238667 35.37844868715171" fill="#45ffef" stroke="none" /><path d="M 116.82858285166822 87.43820079747576 l 8.932289357389635 -6.667562344101365 a32.14639765918185,32.14639765918185 0 0,0 0.3271850977510288,0.44628010563439485 l -9.04573706765429 6.512819794795477" fill="#ff890c" stroke="none" /><line stroke="#e1ed5e" stroke-width="0.3" x1="172.23445277983987" x2="176.4835382374775" y1="55.19839476539836" y2="52.563006222186495" /><path d="M 173.08426987136738 54.67131705675599 a86.0,86.0 0 0,1 12.851231095245387,41.99856678651699" fill="none" id="id15" stroke="none" /><text fill="#e1ed5e" style="font-size:6.75px; font-family:Arial;" text-anchor="middle"><textPath startOffset="22.20632615414155" xlink:href="#id15">March</textPath></text><path d="M 119.7369772167798 92.82701384747503 l 7.790750324572675 -2.8313831232692075 a29.289301599686365,29.289301599686365 0 0,0 0.16813024157497658,0.47532683359427946 l -7.8383336469574605 2.6968586632483134" fill="#ff6209" stroke="none" /><path d="M 119.85752413597 93.16781622104841 l 7.981517581915018 -2.7461225569303793 a29.440723429191387,29.440723429191387 0 0,0 0.1607501438908542,0.4806224695691435 l -8.027605019577642 2.608326984438922" fill="#ff6409" stroke="none" /><path d="M 120.53481517161879 95.60439243477599 l 10.322001082284709 -2.209489867152501 a31.555830228633667,31.555830228633667 0 0,0 0.10912412424715244,0.532127984473032 l -10.35850450244686 2.031486226516057" fill="#ff810b" stroke="none" /><path d="M 120.6074358757038 95.95851677861258 l 5.1684859493778825 -1.0136316507486889 a26.266943718354707,26.266943718354707 0 0,0 0.08319651173937297,0.4444390924375454 l -5.1851681850271145 0.9245144808485807" fill="#ff3705" stroke="none" /><path d="M 120.67395015179393 96.31383870115 l 5.175719088906238 -0.9228297088444811 a26.25734560009083,26.25734560009083 0 0,0 0.07550629629569751,0.44564243490357025 l -5.190837246722158 0.833601485625073" fill="#ff3705" stroke="none" /><path d="M 120.73433829027371 96.67025291283417 l 11.087670088134876 -1.7805794746168115 a32.229732465590956,32.229732465590956 0 0,0 0.08325109725173199,0.5485207138365683 l -11.116677078825909 1.5894596483881611" fill="#ff8a0c" stroke="none" /><path d="M 120.87857604477298 97.74499172005257 l 12.615748128024187 -1.3625745561104978 a33.68911778851097,33.68911778851097 0 0,0 0.05730819622074151,0.5770857151194233 l -12.637333449927157 1.1452133102866395" fill="#ff9d0e" stroke="none" /><path d="M 120.91429891909075 98.10471618934814 l 9.245433476451982 -0.8378344623535686 a30.283318735980483,30.283318735980483 0 0,0 0.04257764844469474,0.5195551562540472 l -9.258485608716171 0.6785653888917526" fill="#ff6f0a" stroke="none" /><line stroke="#e1ed5e" stroke-width="0.3" x1="184.98032266829074" x2="189.97916517819016" y1="98.17113171792111" y2="98.06355123074" /><path d="M 185.9800911702706 98.14961562048488 a86.0,86.0 0 0,1 -9.607161424134198,41.387399972396054" fill="none" id="id16" stroke="none" /><text fill="#e1ed5e" style="font-size:6.75px; font-family:Arial;" text-anchor="middle"><textPath startOffset="21.466115282336823" xlink:href="#id16">April</textPath></text><path d="M 120.95626037817324 101.35467743843564 l 7.344017189149245 0.47473996858647793 a28.359345522007583,28.359345522007583 0 0,0 -0.0356834048913593,0.486871709145417 l -7.334757225593548 -0.6010848142286652" fill="#ff5507" stroke="none" /><path d="M 120.92983693683757 101.71520430193887 l 12.674229953635107 1.0386556668282434 a33.71671775702582,33.71671775702582 0 0,0 -0.05238197757308906,0.5780307575992472 l -12.654473379784942 -1.2566678129760611" fill="#ff9e0e" stroke="none" /><path d="M 120.8583938346157 102.4346265915055 l 12.661750665495331 1.4779007007753846 a33.74771039820578,33.74771039820578 0 0,0 -0.07231409687112907,0.5764145025374802 l -12.634435059377354 -1.6956329576002596" fill="#ff9e0e" stroke="none" /><path d="M 120.81339534386255 102.79330883721812 l 7.792563145968141 1.0458185769594606 a28.862428179628377,28.862428179628377 0 0,0 -0.07032254894170825,0.4918357435104879 l -7.773406546009832 -1.1797997924503578" fill="#ff5c08" stroke="none" /><path d="M 120.64145759157962 103.86396538481128 l 12.526757922616433 2.3449390035636646 a33.74434788375881,33.74434788375881 0 0,0 -0.11179031161740986,0.5700163905146324 l -12.48453767802336 -2.560219121146242" fill="#ff9e0e" stroke="none" /><path d="M 120.5718875245553 104.21870165774334 l 12.413909817794611 2.5457353811066255 a33.67225021829018,33.67225021829018 0 0,0 -0.1213258657656194,0.5667940533964984 l -12.368249913304549 -2.759043253919293" fill="#ff9d0e" stroke="none" /><path d="M 120.41448212921028 104.9243191809786 l 19.240310305166638 4.641089031014154 a40.79215117244463,40.79215117244463 0 0,0 -0.17052806373838603,0.6811748470128194 l -19.15757092713319 -4.97159171742437" fill="#fff817" stroke="none" /><path d="M 120.32669344350535 105.2749913415812 l 41.742560789410284 10.832634798746403 a64.12525197538704,64.12525197538704 0 0,0 -0.28646253537520516,1.0660336608100096 l -41.5499101776933 -11.549559392731961" fill="#34ff5d" stroke="none" /><path d="M 120.23288151984713 105.62410040840565 l 12.883463443853953 3.5811948953085087 a34.3719328141935,34.3719328141935 0 0,0 -0.16336057044346694,0.5686795766071565 l -12.819910236524386 -3.802431947420247" fill="#ffa60f" stroke="none" /><path d="M 120.02730092923936 106.31721596034902 l 3.4425398574171355 1.0858811084055116 a24.609739388307357,24.609739388307357 0 0,0 -0.13090945667355322,0.40289787966475477 l -3.423338149727335 -1.1449778880480614" fill="#ff1f03" stroke="none" /><path d="M 119.9155931802556 106.66101706037122 l 8.025804443603022 2.6843298031937795 a29.462810612277245,29.462810612277245 0 0,0 -0.165004603532709,0.479580614808886 l -7.978409009127082 -2.822083121091966" fill="#ff6409" stroke="none" /><path d="M 119.79798401119884 107.00284435728193 l 7.253130915869695 2.5655413641153606 a28.69349794136137,28.69349794136137 0 0,0 -0.16871194584069527,0.4642228160560746 l -7.207894709023773 -2.6900119771775666" fill="#ff5908" stroke="none" /><path d="M 119.54520255179757 107.68017299344265 l 9.843011721150889 3.8677538692465454 a31.575651267689636,31.575651267689636 0 0,0 -0.20313275901833913,0.5041588490872001 l -9.774976347875157 -4.036612086176559" fill="#ff810b" stroke="none" /><path d="M 118.97047184881838 109.00673069616215 l 5.146892355874531 2.443622580446512 a26.69752509767423,26.69752509767423 0 0,0 -0.2006722568149909,0.41344428619799517 l -5.1040668424448254 -2.5318558226097827" fill="#ff3d05" stroke="none" /><path d="M 118.81262510543309 109.33194174019688 l 10.679167288975812 5.297366338616797 a32.92085165210277,32.92085165210277 0 0,0 -0.25618901755978746,0.5054852363038541 l -10.586399601629756 -5.480405786623345" fill="#ff930d" stroke="none" /><line stroke="#e1ed5e" stroke-width="0.3" x1="174.80103733775053" x2="179.2010983576182" y1="140.37084112569926" y2="142.7455964860345" /><path d="M 175.68104954172406 140.8457921977663 a86.0,86.0 0 0,1 -30.038265399797805,32.042727171017184" fill="none" id="id17" stroke="none" /><text fill="#e1ed5e" style="font-size:6.75px; font-family:Arial;" text-anchor="middle"><textPath startOffset="22.206326154141568" xlink:href="#id17">May</textPath></text><path d="M 118.48025628344425 109.97397251340804 l 9.352762693412362 5.047776210338211 a31.62799203372596,31.62799203372596 0 0,0 -0.26269847296959686,0.4768740343693811 l -9.264487810991255 -5.208020763105397" fill="#ff820b" stroke="none" /><path d="M 118.12598468904814 110.60418214915192 l 10.903888648313544 6.379064273989454 a33.63278467585471,33.63278467585471 0 0,0 -0.29663975835675677,0.4971852976929457 l -10.79246801425856 -6.5658116655685035" fill="#ff9c0e" stroke="none" /><line stroke="#e1ed5e" stroke-width="0.3" x1="143.8653032363475" x2="146.44561519142675" y1="172.8068346515853" y2="177.08958963109032" /><path d="M 144.38136562736335 173.6633856474863 a86.0,86.0 0 0,1 -40.68145358897372,12.25698825130547" fill="none" id="id18" stroke="none" /><text fill="#e1ed5e" style="font-size:6.75px; font-family:Arial;" text-anchor="middle"><textPath startOffset="21.466115282336833" xlink:href="#id18">June</textPath></text><path d="M 107.2578585660854 119.70592522655815 l 1.3742601889359145 3.731275317426479 a24.976305642343185,24.976305642343185 0 0,0 -0.4047118218010749,0.14511526034094333 l -1.309828806505105 -3.7543781188073826" fill="#ff2503" stroke="none" /><path d="M 106.2309692047433 120.05430185196036 l 1.015938637052958 3.2697866770099933 a24.423979589222032,24.423979589222032 0 0,0 -0.40255955045668523,0.12128789030625295 l -0.9595041121560268 -3.2867899364219717" fill="#ff1d02" stroke="none" /><path d="M 105.88484417918355 120.15858648285463 l 0.9126968997131324 3.126451410656223 a24.256948580180573,24.256948580180573 0 0,0 -0.4018207794254313,0.11355856594490712 l -0.8587449521830953 -3.1416987699396492" fill="#ff1a02" stroke="none" /><path d="M 105.53697534728816 120.25689768951611 l 1.11333521345382 4.073111418875154 a25.22252909144359,25.22252909144359 0 0,0 -0.4197864273297416,0.11086941083725038 l -1.043058343312581 -4.091672179015988" fill="#ff2803" stroke="none" /><path d="M 105.18746579009965 120.34920634021253 l 1.1122677635308822 4.363164431629308 a25.502704013726095,25.502704013726095 0 0,0 -0.42631621305641293,0.10477815294733454 l -1.0369982657312582 -4.381663842890672" fill="#ff2c04" stroke="none" /><path d="M 104.13013068566511 120.58985236759428 l 1.0308251516935136 5.13895063026425 a26.241317971050535,26.241317971050535 0 0,0 -0.4436437007640226,0.08502537113233191 l -0.9422138363577867 -5.155933199745051" fill="#ff3705" stroke="none" /><path d="M 103.7750983002368 120.6578951692458 l 1.1521517775957697 6.304744604700913 a27.40915425380934,27.40915425380934 0 0,0 -0.4648475465988302,0.08081970442537545 l -1.0434552595248896 -6.323642887647295" fill="#ff4706" stroke="none" /><path d="M 103.41894727170886 120.7198165907248 l 0.8538458934846729 5.17455488598494 a26.244527726868384,26.244527726868384 0 0,0 -0.4463620990747273,0.06971257997526348 l -0.7646479308014285 -5.18848577330731" fill="#ff3705" stroke="none" /><path d="M 103.06178313531738 120.77559828337769 l 1.2021781039720572 8.157328017487812 a29.245437076259904,29.245437076259904 0 0,0 -0.4986645169168231,0.06911035820324515 l -1.0615849958684034 -8.176812941183659" fill="#ff6109" stroke="none" /><path d="M 102.70371172650421 120.8252237178851 l 0.6735090723027881 5.187674769183267 a26.231212477169592,26.231212477169592 0 0,0 -0.44826965800803037,0.0542792128137325 l -0.5841119912433775 -5.19849951072235" fill="#ff3705" stroke="none" /><path d="M 101.98527174616119 120.90594882070398 l 0.4979001933884424 5.2431491965393855 a26.26673694992904,26.26673694992904 0 0,0 -0.45048164604310237,0.038869451948509756 l -0.4075742296037983 -5.2509429007665585" fill="#ff3705" stroke="none" /><path d="M 101.62511606390274 120.93702456842531 l 0.4047247461531868 5.214231858190621 a26.229915486039786,26.229915486039786 0 0,0 -0.4504516336136843,0.031065781968368487 l -0.3149103517605722 -5.220425984675274" fill="#ff3705" stroke="none" /><path d="M 100.90346689309514 120.98055641714683 l 0.4565707669553545 10.602611792126902 a31.612437687910663,31.612437687910663 0 0,0 -0.5438538271712063,0.01873142544729629 l -0.27399658810949584 -10.608900016000291" fill="#ff810b" stroke="none" /><line stroke="#e1ed5e" stroke-width="0.3" x1="102.19456741930631" x2="102.32365962044197" y1="184.97166512339345" y2="189.96999836594603" /><path d="M 102.22038585953345 185.97133177190398 a86.0,86.0 0 0,1 -42.740103519485714,-10.115201625700543" fill="none" id="id19" stroke="none" /><text fill="#e1ed5e" style="font-size:6.75px; font-family:Arial;" text-anchor="middle"><textPath startOffset="22.20632615414155" xlink:href="#id19">July</textPath></text><path d="M 99.45781275523022 120.99299961872073 l -0.08057522227884967 3.1197997129136987 a24.120840049592687,24.120840049592687 0 0,0 -0.4149699338299539,-0.014292403565191989 l 0.1342655077834466 -3.117950510922413" fill="#ff1802" stroke="none" /><path d="M 99.09653310690486 120.98055641714683 l -0.24349894729211766 5.654599454858136 a26.659839815066704,26.659839815066704 0 0,0 -0.4583104889249621,-0.02368941726847088 l 0.34079750463056874 -5.649570230827464" fill="#ff3d05" stroke="none" /><path d="M 98.73552117531835 120.96189622390904 l -0.31423405925262154 5.209214746422896 a26.218683868404383,26.218683868404383 0 0,0 -0.4502587507767314,-0.03105247963863741 l 0.403855570808283 -5.203033922267974" fill="#ff3705" stroke="none" /><path d="M 98.37488393609728 120.93702456842531 l -0.48519426693051904 6.250953093644081 a27.269755023571555,27.269755023571555 0 0,0 -0.4676836774064493,-0.040353715596912414 l 0.59272226207851 -6.241675125768506" fill="#ff4506" stroke="none" /><path d="M 95.51606077576429 120.51570834832081 l -0.7817527880312717 3.576813020357104 a24.661246892001518,24.661246892001518 0 0,0 -0.41393298191802025,-0.09420979903445155 l 0.8432059193421546 -3.562826487744966" fill="#ff2003" stroke="none" /><path d="M 94.46302465271185 120.25689768951611 l -1.5892752235439809 5.814327062081078 a27.027619341084765,27.027619341084765 0 0,0 -0.44771744614744297,-0.12652942240996007 l 1.6891238377960376 -5.786108846332596" fill="#ff4206" stroke="none" /><path d="M 94.11515582081647 120.15858648285463 l -1.4515465495842568 4.9722857161093375 a26.179827470894654,26.179827470894654 0 0,0 -0.4314996882149222,-0.13000731641323976 l 1.5369212122394247 -4.946563030590372" fill="#ff3605" stroke="none" /><path d="M 92.7421414339146 119.70592522655815 l -0.8030610025916775 2.180403479255428 a23.3235891001278,23.3235891001278 0 0,0 -0.37554285873828974,-0.1419981752497712 l 0.8404740820902501 -2.1662570538990233" fill="#ff0d01" stroke="none" /><line stroke="#e1ed5e" stroke-width="0.3" x1="58.666819895761336" x2="56.23545636021788" y1="174.27360380694188" y2="178.64263932499728" /><path d="M 58.180547188652646 175.14741091055294 a86.0,86.0 0 0,1 -31.652253787137756,-30.449443065178592" fill="none" id="id20" stroke="none" /><text fill="#e1ed5e" style="font-size:6.75px; font-family:Arial;" text-anchor="middle"><textPath startOffset="22.20632615414155" xlink:href="#id20">August</textPath></text><path d="M 89.7882731507175 118.34994917583269 l -2.0588917254110903 3.6997227870906637 a25.23402690571094,25.23402690571094 0 0,0 -0.37773083206446034,-0.2144854246153549 l 2.122271324396758 -3.6637341966806756" fill="#ff2803" stroke="none" /><path d="M 89.1626897886671 117.98757091392108 l -3.3789589920348253 5.608334845015231 a27.547578453418105,27.547578453418105 0 0,0 -0.4040584359594923,-0.24820569306365597 l 3.4749966279266262 -5.549340685123197" fill="#ff4906" stroke="none" /><path d="M 88.8546689885994 117.79835938074946 l -0.7698176674260306 1.2293480999786777 a22.4504881909214,22.4504881909214 0 0,0 -0.32576534784306643,-0.20791885804741844 l 0.7908648173160205 -1.215914813107455" fill="#ff0000" stroke="none" /><path d="M 88.24862548938628 117.40417183066458 l -10.168945797203994 15.060542903419892 a39.172160333109105,39.172160333109105 0 0,0 -0.555578965222136,-0.3821322783192585 l 10.426681647049021 -14.883269835735533" fill="#ffe415" stroke="none" /><path d="M 87.36589467227662 116.77436683061367 l -22.25561137555844 29.548890053496773 a57.992555211738576,57.992555211738576 0 0,0 -0.792209431023958,-0.6074324101660376 l 22.760949535075884 -29.16141830150337" fill="#46ff2c" stroke="none" /><path d="M 85.70375840098266 115.38237550388516 l -3.952902305003099 4.2532176841436655 a26.806487518423786,26.806487518423786 0 0,0 -0.3352906512828459,-0.3170382385751903 l 4.025528790676762 -4.184544808822545" fill="#ff3f05" stroke="none" /><line stroke="#e1ed5e" stroke-width="0.3" x1="26.63291911575756" x2="22.317208475507996" y1="142.92168965132927" y2="145.44649492493687" /><path d="M 25.769776987707644 143.4266507060508 a86.0,86.0 0 0,1 -11.730757126820373,-40.83630448921669" fill="none" id="id21" stroke="none" /><text fill="#e1ed5e" style="font-size:6.75px; font-family:Arial;" text-anchor="middle"><textPath startOffset="21.46611528233685" xlink:href="#id21">September</textPath></text><path d="M 81.69416730710424 110.29060199501025 l -14.814769778338311 8.328105145184171 a37.99513868417699,37.99513868417699 0 0,0 -0.3155832625086539,-0.5728752888082762 l 14.955929450298482 -8.071859337978072" fill="#ffd513" stroke="none" /><path d="M 81.51974371655577 109.97397251340807 l -16.580598832417103 8.948709069501747 a39.841328287892395,39.841328287892395 0 0,0 -0.32052821348706256,-0.6063185857064184 l 16.73217955412905 -8.661975468709203" fill="#ffec16" stroke="none" /><path d="M 80.45479744820244 107.68017299344265 l -16.686147955662836 6.556724216801934 a38.92813894562032,38.92813894562032 0 0,0 -0.23969671668797193,-0.6257724902421782 l 16.796538951944317 -6.268528159726598" fill="#ffe115" stroke="none" /><path d="M 80.20201598880116 107.00284435728193 l -4.96409466337041 1.7558748548707315 a26.265485004524265,26.265485004524265 0 0,0 -0.14709818410739012,-0.4275361781497684 l 4.993583678421029 -1.670165973631666" fill="#ff3705" stroke="none" /><path d="M 79.35854240842038 103.8639653848113 l -3.22914541412415 0.6044779564301594 a24.285235715343575,24.285235715343575 0 0,0 -0.07338021927475939,-0.41155523929118326 l 3.239072075738098 -0.5488039664057625" fill="#ff1b02" stroke="none" /><path d="M 79.18660465613746 102.79330883721812 l -5.526055343205517 0.7416367666164647 a26.575599765923624,26.575599765923624 0 0,0 -0.056945803825065686,-0.4539140859619287 l 5.53800265627743 -0.6464049263671274" fill="#ff3c05" stroke="none" /><path d="M 79.1416061653843 102.43462659150553 l -10.47664541739875 1.222851563989731 a31.547770624613257,31.547770624613257 0 0,0 -0.05831484992477188,-0.5399230856581538 l 10.496142568824572 -1.042332156446795" fill="#ff810b" stroke="none" /><path d="M 79.07016306316243 101.71520430193888 l -16.836026647098265 1.3797157340406792 a37.89246603573801,37.89246603573801 0 0,0 -0.04767854063614232,-0.6505358062032215 l 16.85728174639874 -1.089706791340697" fill="#ffd413" stroke="none" /><line stroke="#e1ed5e" stroke-width="0.3" x1="15.007084014347285" x2="10.007500721073583" y1="101.09737516637583" y2="101.16192664675087" /><path d="M 14.007167355692545 101.11028546245083 a86.0,86.0 0 0,1 10.666146001902534,-42.60595125391555" fill="none" id="id22" stroke="none" /><text fill="#e1ed5e" style="font-size:6.75px; font-family:Arial;" text-anchor="middle"><textPath startOffset="22.20632615414155" xlink:href="#id22">October</textPath></text><path d="M 79.00019446554 99.90962569577889 l -5.5221721376549855 -0.02376509934393823 a26.52222327489933,26.52222327489933 0 0,0 0.005894239392681624,-0.45651533664289307 l 5.520944891144588 0.11881669404730329" fill="#ff3b05" stroke="none" /><path d="M 79.00486145842228 99.54816195383935 l -10.528402107696474 -0.22658257901534878 a31.530839976301074,31.530839976301074 0 0,0 0.016348448558672728,-0.5425254171525219 l 10.522941964682156 0.40777814359286507" fill="#ff800b" stroke="none" /><path d="M 79.01574976396665 99.18683210126434 l -7.0710299096662 -0.2740119122134112 a28.07633708294262,28.07633708294262 0 0,0 0.02287070578615056,-0.48276445177900584 l 7.065265595646552 0.39568747061542614" fill="#ff5107" stroke="none" /><path d="M 79.54389044137918 95.25157060432595 l -10.559501114954818 -2.4511525690755493 a31.84025888591309,31.84025888591309 0 0,0 0.12852426593950297,-0.5328160571570467 l 10.5157440487545 2.6325538578919927" fill="#ff840c" stroke="none" /><path d="M 79.81627453868168 94.20196356495316 l -5.099324260928242 -1.4648469092409635 a26.305552222493354,26.305552222493354 0 0,0 0.12876455436630227,-0.4341300650343076 l 5.073353809450233 1.5524063610218104" fill="#ff3805" stroke="none" /><path d="M 80.38941819471856 92.48833698450439 l -14.733819372375363 -5.643661526995503 a36.7777168414531,36.7777168414531 0 0,0 0.2315357803364218,-0.5892333061413684 l 14.63449004215725 5.896443838032635" fill="#ffc512" stroke="none" /><path d="M 81.10775173730289 90.83032412892265 l -5.731814043396141 -2.782033996187195 a27.371295424324202,27.371295424324202 0 0,0 0.2093773591624644,-0.42209197969188766 l 5.683076671280264 2.8802855643780445" fill="#ff4706" stroke="none" /><path d="M 81.43458229118936 90.18545643968196 l -13.827443318873835 -7.3098298626758975 a36.640709745978185,36.640709745978185 0 0,0 0.29956729058434567,-0.5550526930662316 l 13.699567929071018 7.546763539074602" fill="#ffc412" stroke="none" /><line stroke="#e1ed5e" stroke-width="0.3" x1="26.266209847984243" x2="21.928928074336255" y1="57.711370442889674" y2="55.22380399835377" /><path d="M 25.398753493254645 57.213857153982495 a86.0,86.0 0 0,1 29.58750427330803,-30.492523968695096" fill="none" id="id23" stroke="none" /><text fill="#e1ed5e" style="font-size:6.75px; font-family:Arial;" text-anchor="middle"><textPath startOffset="21.46611528233685" xlink:href="#id23">November</textPath></text><path d="M 84.31358615837235 86.03803664274999 l -10.89092378281844 -9.693654669417793 a35.580094707960086,35.580094707960086 0 0,0 0.4111302975414247,-0.45398034312776786 l 10.72244984466097 9.879687799815116" fill="#ffb610" stroke="none" /><path d="M 86.93701828274178 83.55741782278169 l -3.5097255469062527 -4.4177471861761894 a26.642221514224165,26.642221514224165 0 0,0 0.361531704275478,-0.28218122970787973 l 3.433161287471349 4.47750680510729" fill="#ff3d05" stroke="none" /><path d="M 87.51073957382395 83.11751280151077 l -3.132464443239094 -4.2343412706703125 a26.26706554778456,26.26706554778456 0 0,0 0.3658060164329435,-0.26577362793876214 l 3.0591131104523686 4.287634133425742" fill="#ff3705" stroke="none" /><line stroke="#e1ed5e" stroke-width="0.3" x1="56.762969772571076" x2="54.21961505331055" y1="26.818313649435495" y2="22.513508569990535" /><path d="M 56.25429882871897 25.957352633546506 a86.0,86.0 0 0,1 42.265352541879196,-11.944610805530505" fill="none" id="id24" stroke="none" /><text fill="#e1ed5e" style="font-size:6.75px; font-family:Arial;" text-anchor="middle"><textPath startOffset="22.20632615414155" xlink:href="#id24">December</textPath></text><path d="M 96.40284397218896 79.31037775812273 l -0.40617238311196824 -2.3361658784602297 a23.371212140759386,23.371212140759386 0 0,0 0.3969442279876745,-0.06549919876735477 l 0.3658989489854081 2.3428113401672115" fill="#ff0e01" stroke="none" /><path d="M 98.55514903715128 79.0497635885617 l -0.37528092084871995 -5.441546716335042 a26.454472150044378,26.454472150044378 0 0,0 0.45456083474529846,-0.027420350903628675 l 0.2815580372637985 5.447200336618977" fill="#ff3a05" stroke="none" /><path d="M 98.91598698831166 79.02799685794201 l -0.27554901067382137 -5.330945897634491 a26.338062515631428,26.338062515631428 0 0,0 0.4529634635534948,-0.019505559574572198 l 0.18374471473100248 5.334899183733255" fill="#ff3805" stroke="none" /><path d="M 99.27714615592234 79.0124445844662 l -0.18981131583289101 -5.5110387005290535 a26.514306474466864,26.514306474466864 0 0,0 0.4562649593405855,-0.011783977787018035 l 0.09491972129742653 5.513489470458431" fill="#ff3b05" stroke="none" /></svg>